<?xml version="1.0" standalone="no"?>
<!DOCTYPE svg PUBLIC "-//W3C//DTD SVG 20010904//EN"
 "http://www.w3.org/TR/2001/REC-SVG-20010904/DTD/svg10.dtd">
<svg version="1.0" xmlns="http://www.w3.org/2000/svg"
 width="300.000000pt" height="300.000000pt" viewBox="0 0 300.000000 300.000000"
 preserveAspectRatio="xMidYMid meet">
<metadata>
Created by potrace 1.11, written by Peter Selinger 2001-2013
</metadata>
<g transform="translate(0.000000,300.000000) scale(0.100000,-0.100000)"
fill="#000000" stroke="none">
<path d="M435 2920 c-3 -5 -25 -10 -48 -10 l-42 0 0 -979 0 -980 30 -25 c17
-15 38 -29 47 -32 10 -3 18 -9 18 -13 0 -4 21 -23 48 -42 26 -18 52 -37 57
-41 6 -5 35 -27 65 -51 30 -23 56 -45 58 -49 2 -5 10 -8 17 -8 7 0 15 -3 17
-7 2 -5 30 -28 63 -53 33 -25 62 -47 65 -50 6 -6 120 -93 250 -191 47 -35 87
-66 90 -69 19 -19 91 -70 98 -70 6 0 13 -7 16 -16 4 -9 9 -14 12 -11 3 2 15
-5 27 -17 13 -11 38 -32 56 -46 19 -14 52 -39 75 -57 38 -30 41 -31 56 -15 9
9 29 26 44 37 16 11 34 25 41 32 7 7 15 9 19 6 3 -4 6 -2 6 3 0 5 28 30 61 54
34 25 73 55 86 67 13 13 28 23 33 23 5 0 14 8 19 18 6 9 11 14 11 10 0 -7 19
7 54 37 6 6 40 32 76 58 36 26 75 57 86 67 12 11 27 20 33 20 6 0 11 4 11 8 0
4 25 25 56 47 30 22 64 47 74 55 10 8 27 22 37 30 10 8 36 28 58 45 22 16 42
33 43 37 2 4 9 8 15 8 7 0 28 15 47 33 19 18 43 36 53 40 9 3 17 11 17 17 0 5
6 10 13 10 6 0 29 16 50 35 21 19 42 35 48 35 5 0 9 4 9 9 0 5 9 12 20 16 15
5 17 11 11 28 -5 12 -5 31 -1 42 4 11 4 29 0 40 -4 11 -4 29 0 40 4 11 4 29 0
40 -4 11 -4 29 0 40 4 11 4 29 0 40 -4 11 -4 29 0 40 4 11 4 29 0 40 -4 11 -4
29 0 40 4 11 4 29 0 40 -4 11 -4 29 0 40 4 11 4 29 0 40 -4 11 -4 29 0 40 4
11 4 29 0 40 -4 11 -4 29 0 40 4 11 4 29 0 40 -4 11 -4 29 0 40 4 11 4 29 0
40 -4 11 -4 29 0 40 4 11 4 29 0 40 -4 11 -4 29 0 40 4 11 4 29 0 40 -4 11 -4
29 0 40 4 11 4 29 0 40 -4 11 -4 29 0 40 4 11 4 29 0 40 -4 11 -4 29 0 40 4
11 4 29 0 40 -4 11 -4 29 0 40 4 11 4 29 0 40 -4 11 -4 29 0 40 4 11 4 29 0
40 -4 11 -4 29 0 40 4 11 4 29 0 40 -4 11 -4 29 0 40 4 11 4 29 0 40 -4 11 -4
29 0 40 4 11 4 29 0 40 -4 11 -4 29 0 40 4 11 4 29 0 40 -4 11 -4 29 0 40 4
11 4 29 0 40 -4 11 -4 29 0 40 4 11 4 29 0 40 -4 11 -4 29 0 40 4 11 4 29 0
41 -5 11 -4 27 0 34 5 8 5 21 0 31 -5 9 -6 19 -3 23 7 7 -5 8 -69 6 -34 -1
-48 2 -49 12 0 7 -4 4 -9 -7 -5 -11 -9 -15 -9 -10 -1 6 -29 9 -72 7 -57 -3
-70 -1 -64 10 6 10 5 11 -6 1 -7 -7 -28 -13 -46 -13 -20 0 -33 5 -33 13 0 9
-2 9 -8 1 -7 -12 -132 -24 -132 -14 0 3 -21 3 -46 1 -32 -2 -49 1 -55 10 -7
11 -9 9 -10 -6 0 -11 -2 -15 -5 -10 -2 6 -34 9 -75 7 -57 -3 -70 -1 -64 10 6
10 5 11 -6 1 -7 -7 -28 -13 -46 -13 -20 0 -33 5 -33 13 0 9 -2 9 -8 1 -7 -12
-132 -24 -132 -14 0 3 -21 3 -46 1 -32 -2 -49 1 -55 10 -7 11 -9 9 -10 -6 0
-11 -2 -15 -5 -10 -2 6 -34 9 -75 7 -57 -3 -70 -1 -64 10 6 10 5 11 -6 1 -7
-7 -28 -13 -46 -13 -20 0 -33 5 -33 13 0 9 -2 9 -8 1 -7 -12 -132 -24 -132
-14 0 3 -21 3 -46 1 -32 -2 -49 1 -55 10 -7 11 -9 9 -10 -6 0 -11 -2 -15 -5
-10 -2 6 -34 9 -75 7 -57 -3 -70 -1 -64 10 6 10 5 11 -6 1 -7 -7 -28 -13 -46
-13 -20 0 -33 5 -33 13 0 9 -2 9 -8 1 -7 -12 -132 -24 -132 -14 0 3 -21 3 -46
1 -32 -2 -49 1 -55 10 -7 11 -9 9 -10 -6 0 -11 -2 -15 -5 -10 -2 6 -34 9 -75
7 -49 -3 -69 0 -65 7 4 6 5 11 2 11 -3 0 -8 -4 -11 -10z m1865 -339 c13 -1 15
-25 15 -156 0 -97 -4 -155 -10 -155 -7 0 -7 -3 0 -8 6 -4 10 -69 10 -157 0
-88 -4 -153 -10 -157 -7 -5 -7 -8 0 -8 6 0 10 -58 10 -155 0 -97 -4 -155 -10
-155 -7 0 -7 -3 0 -8 6 -4 10 -69 10 -157 0 -88 -4 -153 -10 -157 -7 -5 -7 -8
0 -8 6 0 9 -32 7 -82 -3 -66 -7 -86 -23 -101 -10 -10 -19 -15 -19 -11 0 4 -9
-3 -20 -16 -11 -13 -20 -20 -20 -17 0 4 -8 -1 -18 -10 -11 -10 -61 -49 -112
-88 -51 -38 -98 -76 -105 -82 -8 -7 -18 -13 -23 -13 -6 0 -13 -7 -16 -16 -3
-8 -10 -12 -16 -9 -5 3 -10 2 -10 -2 0 -5 -33 -33 -72 -62 -40 -30 -85 -66
-100 -80 -16 -13 -28 -22 -28 -18 0 3 -17 -10 -37 -28 -21 -19 -41 -35 -45
-35 -5 0 -17 -8 -27 -18 -26 -23 -39 -33 -81 -62 -19 -14 -38 -29 -41 -33 -9
-13 -19 -10 -37 10 -9 11 -44 39 -77 64 -33 24 -65 49 -71 54 -32 28 -55 45
-60 45 -3 0 -11 6 -19 13 -18 17 -41 35 -110 86 -33 25 -62 47 -65 51 -3 3
-21 17 -40 30 -38 27 -65 48 -85 67 -8 7 -18 13 -23 13 -6 0 -12 3 -14 8 -2 4
-30 27 -63 52 -72 54 -93 71 -110 88 -8 6 -16 12 -20 12 -4 0 -13 6 -21 14
-12 12 -14 124 -14 734 0 395 2 721 4 723 3 3 1556 3 1626 0z"/>
<path d="M874 2422 c3 -5 -5 -8 -17 -8 -22 1 -22 0 -22 -173 l0 -174 245 -1
245 -1 2 -30 c1 -16 -3 -33 -10 -37 -9 -6 -9 -8 0 -8 8 0 11 -31 9 -106 -1
-58 2 -108 6 -110 5 -3 4 -12 -3 -20 -9 -11 -8 -14 2 -14 11 0 11 -2 1 -8 -7
-5 -10 -16 -6 -26 4 -11 1 -22 -7 -27 -9 -5 -10 -9 -2 -9 8 0 11 -31 9 -106
-1 -58 2 -108 6 -110 5 -3 4 -12 -3 -20 -9 -11 -8 -14 2 -14 9 0 10 -3 4 -8
-11 -8 -13 -181 -2 -199 4 -6 2 -15 -4 -19 -8 -4 -7 -9 2 -15 8 -5 10 -9 4 -9
-11 0 -13 -185 -2 -196 4 -4 2 -13 -4 -21 -9 -10 -8 -13 2 -13 9 0 10 -3 4 -8
-6 -4 -11 -32 -10 -62 0 -41 5 -60 19 -72 10 -10 22 -18 25 -18 3 0 20 -14 38
-30 18 -17 36 -30 42 -30 5 0 14 -7 19 -16 12 -22 38 -12 85 30 20 19 37 32
37 28 1 -4 10 4 20 17 11 13 20 20 20 15 0 -4 6 -2 12 4 10 10 13 152 13 640
l0 627 235 2 c129 0 240 2 247 2 8 1 11 29 9 92 -1 50 2 93 5 95 4 2 3 20 -1
39 -4 19 -5 37 -1 40 13 7 0 69 -16 82 -11 9 -21 9 -34 2 -13 -7 -19 -6 -19 1
0 6 -5 8 -12 4 -17 -11 -78 -12 -84 -2 -3 5 -10 6 -15 2 -17 -10 -79 -12 -79
-3 0 6 -9 5 -21 -2 -16 -8 -20 -8 -14 1 6 9 2 9 -16 0 -17 -10 -24 -10 -27 -1
-2 6 -8 11 -13 11 -6 0 -8 -3 -6 -7 3 -5 -10 -9 -29 -9 -19 -1 -34 3 -34 8 0
5 -10 4 -21 -3 -16 -8 -20 -8 -14 1 6 9 2 9 -16 0 -17 -10 -24 -10 -27 -1 -2
6 -8 11 -13 11 -6 0 -8 -3 -6 -7 3 -5 -10 -9 -29 -9 -19 -1 -34 3 -34 8 0 5
-10 4 -21 -3 -16 -8 -20 -8 -14 1 6 9 2 9 -16 0 -17 -10 -24 -10 -27 -1 -2 6
-8 11 -13 11 -6 0 -8 -3 -6 -7 3 -5 -10 -9 -29 -9 -19 -1 -34 3 -34 8 0 5 -10
4 -21 -3 -16 -8 -20 -8 -14 1 6 9 2 9 -16 0 -17 -10 -24 -10 -27 -1 -2 6 -8
11 -13 11 -6 0 -8 -4 -5 -8 4 -7 -41 -9 -54 -2 -3 1 -9 1 -15 0 -32 -7 -75 -6
-75 3 0 5 -7 4 -16 -4 -13 -10 -17 -10 -24 0 -5 8 -13 10 -21 5 -18 -10 -79
-12 -85 -2 -3 5 -10 5 -16 2 -17 -11 -78 -12 -78 -1 0 5 -7 3 -17 -4 -13 -11
-17 -11 -20 -1 -3 6 -9 12 -14 12 -6 0 -8 -4 -5 -8z"/>
<path d="M837 1903 c-2 -4 -3 -167 -3 -362 l1 -354 75 -58 c41 -32 81 -58 88
-59 7 0 11 -4 8 -9 -3 -5 9 -16 27 -25 17 -8 28 -16 22 -16 -5 0 8 -12 30 -27
22 -15 46 -33 53 -40 8 -7 17 -11 20 -9 9 6 9 938 0 952 -7 11 -68 12 -86 0
-6 -3 -13 -2 -17 4 -3 5 -13 10 -21 10 -9 0 -12 -5 -8 -11 4 -8 1 -8 -12 -2
-22 10 -130 10 -140 0 -4 -4 -13 -2 -20 4 -7 5 -14 6 -17 2z"/>
<path d="M1829 1898 c-20 -8 -26 -28 -8 -28 6 0 7 -5 2 -12 -10 -17 -11 -68
-1 -74 5 -3 6 -10 2 -15 -10 -17 -12 -59 -2 -65 4 -3 5 -10 2 -16 -10 -16 -11
-59 -2 -86 5 -15 4 -21 -2 -17 -6 3 -10 2 -10 -4 0 -5 5 -13 10 -16 6 -4 7
-13 2 -23 -9 -20 -9 -62 0 -77 4 -6 3 -17 -2 -25 -4 -7 -4 -24 1 -37 6 -16 5
-22 -1 -18 -6 3 -10 2 -10 -4 0 -5 5 -13 10 -16 7 -4 7 -13 0 -24 -6 -12 -5
-22 3 -31 9 -10 9 -11 0 -6 -8 4 -11 -1 -10 -14 1 -11 5 -20 10 -20 5 0 4 -7
-3 -15 -9 -11 -10 -18 -1 -28 6 -8 8 -17 4 -20 -9 -10 -10 -59 -1 -85 5 -15 4
-21 -2 -17 -6 3 -10 2 -10 -4 0 -5 5 -13 10 -16 6 -4 7 -11 4 -17 -11 -17 -12
-78 -2 -84 5 -3 4 -12 -3 -20 -24 -29 27 -15 56 16 16 16 30 28 33 26 2 -3 12
3 22 12 22 20 32 28 85 67 22 17 44 33 50 37 35 27 89 78 81 78 -5 0 -3 7 4
15 7 8 9 15 4 15 -7 0 -10 171 -3 190 1 3 0 10 -1 15 -5 26 -4 177 1 181 4 2
3 20 -1 39 -4 20 -4 38 1 41 5 3 7 9 5 13 -10 16 -14 61 -6 66 4 3 4 21 0 40
-4 19 -4 37 1 40 4 3 5 15 0 27 -6 18 -16 21 -59 22 -30 1 -52 -3 -52 -9 0 -7
-3 -7 -8 0 -6 9 -50 12 -77 5 -5 -1 -12 -1 -15 0 -14 6 -94 4 -111 -2z"/>
</g>
</svg>
